<svg width="270" height="270" viewBox="0 0 270 270" fill="none" xmlns="http://www.w3.org/2000/svg">
<mask id="mask0_145_90" style="mask-type:luminance" maskUnits="userSpaceOnUse" x="23" y="53" width="114" height="123">
<path d="M23.9316 53.3027H136.091V175.084H23.9316V53.3027Z" fill="white"/>
</mask>
<g mask="url(#mask0_145_90)">
<path d="M81.3361 140.823L94.6509 117.757L103.397 132.903C113.757 129.661 124.606 126.899 135.843 124.65L94.6509 53.3027L47.3629 135.211L24.7266 174.416C40.09 161.16 59.2965 149.815 81.3361 140.823Z" fill="black"/>
</g>
<mask id="mask1_145_90" style="mask-type:luminance" maskUnits="userSpaceOnUse" x="0" y="123" width="270" height="94">
<path d="M0 123.811H270V216.697H0V123.811Z" fill="white"/>
</mask>
<g mask="url(#mask1_145_90)">
<path d="M241.751 126.193C130.543 116.809 29.0656 156.032 0.0703125 217.114H37.2856C56.78 194.549 84.7363 174.537 118.655 159.341L124.543 169.542L152.011 217.114H189.222L149.069 147.57C168.267 141.227 188.863 136.345 210.536 133.245C230.844 130.341 250.739 129.214 269.87 129.636C260.674 128.18 251.306 126.995 241.751 126.193Z" fill="black"/>
</g>
</svg>
