<svg width="32" height="32" viewBox="0 0 32 32" fill="none" xmlns="http://www.w3.org/2000/svg">
<path d="M21.2069 14.0934C21.2757 14.0744 21.2893 14.0849 21.3589 14.1022C21.5295 14.3443 21.8138 14.8796 21.9678 15.15L23.0932 17.1209C24.4298 19.4485 25.7733 21.8377 27.1413 24.1431L22.786 24.1453L18.8733 17.3652C16.8624 18.3102 15.6158 18.9598 13.7844 20.2148C12.2295 21.1948 10.5365 22.7855 9.31067 24.143L4.94189 24.1439C5.14844 23.693 5.38845 23.2581 5.66002 22.8431C8.95754 17.8084 15.5568 15.267 21.2069 14.0934Z" fill="#145DA1"/>
<path d="M16.0308 4.92944C16.2016 5.07674 17.2415 6.95957 17.4442 7.31147L20.8837 13.2847C19.505 13.549 18.4136 13.8531 17.0739 14.2493C16.7366 13.6543 16.3949 13.0617 16.0494 12.4714L14.4839 15.1765C13.5141 15.5935 12.7881 15.9159 11.8543 16.4128C10.5962 17.0027 8.89096 18.2431 7.83545 19.1345C8.70411 17.56 9.69404 15.9074 10.5976 14.3415L16.0308 4.92944Z" fill="#145DA1"/>
</svg>
