<svg width="61" height="62" viewBox="0 0 61 62" fill="none" xmlns="http://www.w3.org/2000/svg">
<path d="M54.9087 0.65332H5.75726C2.63803 0.65332 0.0859375 3.20542 0.0859375 6.32464V55.4761C0.0859375 58.5953 2.63803 61.1474 5.75726 61.1474H54.9087C58.0279 61.1474 60.58 58.5953 60.58 55.4761V6.32464C60.58 3.20542 58.0279 0.65332 54.9087 0.65332ZM22.7712 49.8048H15.2095V23.3386H22.7712V49.8048ZM18.9903 19.5577C16.8995 19.5577 15.2095 17.8677 15.2095 15.7768C15.2095 13.686 16.8995 11.996 18.9903 11.996C21.0812 11.996 22.7712 13.686 22.7712 15.7768C22.7712 17.8677 21.0812 19.5577 18.9903 19.5577ZM49.2374 49.8048H41.6756V34.6813C41.6756 32.5904 39.9856 30.9004 37.8947 30.9004C35.8039 30.9004 34.1139 32.5904 34.1139 34.6813V49.8048H26.5521V23.3386H34.1139V28.0307C35.6716 25.8907 38.0611 23.3386 40.7304 23.3386C45.4338 23.3386 49.2374 27.5694 49.2374 32.7908V49.8048Z" fill="#0C64C5"/>
</svg>
