<svg width="51" height="51" viewBox="0 0 51 51" fill="none" xmlns="http://www.w3.org/2000/svg">
<path d="M21.8242 21.1758H26.9325V23.7936H27.0064C27.7171 22.5179 29.4562 21.1758 32.05 21.1758C37.4426 21.1758 38.4396 24.5321 38.4396 28.8982V37.7911H33.1134V29.9081C33.1134 28.0287 33.0746 25.6084 30.3442 25.6084C27.5713 25.6084 27.1467 27.6558 27.1467 29.7714V37.7911H21.8242V21.1758Z" fill="#0C64C5"/>
<path d="M12.5938 21.1758H18.1322V37.7911H12.5938V21.1758Z" fill="#0C64C5"/>
<path d="M18.1322 16.5602C18.1322 18.0888 16.8916 19.3295 15.363 19.3295C13.8344 19.3295 12.5938 18.0888 12.5938 16.5602C12.5938 15.0316 13.8344 13.791 15.363 13.791C16.8916 13.791 18.1322 15.0316 18.1322 16.5602Z" fill="#0C64C5"/>
</svg>
